<svg class="svg-icon" style="width: 1em; height: 1em;vertical-align: middle;fill: currentColor;overflow: hidden;" viewBox="0 0 1024 1024" version="1.1" xmlns="http://www.w3.org/2000/svg"><path d="M523.9 498.8c-27 0-48.9 16.4-48.9 36.7h97.9c-0.1-20.3-22-36.7-49-36.7zM477.5 388.4c0-26.3 20.8-47.8 46.4-47.8 25.6 0 46.4 21.4 46.4 47.8 0 26.3-20.8 47.7-46.4 47.7-25.6 0.1-46.4-21.4-46.4-47.7z" fill="" /><path d="M525.5 501.3l42.6-51.8c-13.9-1.9-32.7-2.9-44.2-2.9-14.9 0-42.6 1.7-55.1 4.8-5.2 1.3-9.8 4.3-13.3 8.3l-25.3 43.8-10.6 11.9c-6.4 7.2-6.4 18.9 0 26.1l12.7 14.2h23.5c0-30.1 30.6-54.6 68.3-54.6 0.3 0.1 0.8 0.2 1.4 0.2zM628.4 515.4l-10.6-11.9-25.4-43.8c-2.6-3-5.9-5.1-9.5-6.7l-41.3 50.3c29.1 6.3 50.7 27.3 50.7 52.5h23.5l12.7-14.2c6.2-7.3 6.2-19-0.1-26.2z" fill="" /><path d="M871.5 552.5c-4.9-37.2-29.7-68.9-64.5-82.5l-32.3-136.2c-16-55.1-67.2-92.4-124.5-90.8H396.3c-57.3-1.6-108.5 35.8-124.5 90.8L239.5 470c-35 13.7-59.6 45.3-64.5 82.5l-9.2 86.7c-1 38.9 23.2 74 60 86.6 8.9 33 39.5 55.3 73.7 53.6 30.9-1 59-18.2 73.7-45.4h299.7c12.5 29.3 42.3 47.6 74.2 45.4 34.2 1.7 64.9-20.7 73.7-53.6 36.3-13.3 60.3-48 60-86.6l-9.3-86.7z m-539.7-90.9l27.7-103.2c6.3-17.4 23-29 41.5-28.9h249.1c18.5-0.1 35.2 11.4 41.5 28.9l27.8 103.2c1.3 5.9-0.3 12.1-4.4 16.5-4.7 5.2-11.4 8.2-18.4 8.3H354.8c-7 0-13.8-3-18.4-8.3-3.1-1.2-5.6-3.9-6.4-7.1-1-3.3-0.3-6.7 1.8-9.4zM364 635c-10.4 8.4-23.5 12.8-36.9 12.4-13.3 0.3-26.3-4-36.8-12.4-5.7-10.1-8.9-21.4-9.2-33-0.3-12.4 4.7-24.4 13.7-33.1 10.4-8.4 23.5-12.8 36.9-12.4 13.4-0.4 26.4 4 36.9 12.4 9.1 8.6 14.1 20.5 13.8 33-3.4 12.3-9.7 23.7-18.4 33.1z m387.5 0c-21.9 16.6-52 16.6-73.7 0-8.9-8.7-13.9-20.7-13.9-33s5-24.3 13.9-33c21.9-16.6 52-16.6 73.7 0 8.9 8.7 13.9 20.7 13.9 33 0 12.4-5 24.2-13.9 33z m0 0" fill="" /></svg>