<svg xmlns="http://www.w3.org/2000/svg" xmlns:xlink="http://www.w3.org/1999/xlink" width="173" zoomAndPan="magnify" viewBox="0 0 129.75 38.999999" height="52" preserveAspectRatio="xMidYMid meet" version="1.0"><defs><g/><clipPath id="0ca999b228"><path d="M 0 0.0390625 L 129.5 0.0390625 L 129.5 38.960938 L 0 38.960938 Z M 0 0.0390625 " clip-rule="nonzero"/></clipPath><clipPath id="52ea76448d"><path d="M 5 8.324219 L 31.589844 8.324219 L 31.589844 30.78125 L 5 30.78125 Z M 5 8.324219 " clip-rule="nonzero"/></clipPath></defs><g clip-path="url(#0ca999b228)"><path fill="#ffffff" d="M 0 0.0390625 L 129.5 0.0390625 L 129.5 38.960938 L 0 38.960938 Z M 0 0.0390625 " fill-opacity="1" fill-rule="nonzero"/><path fill="#002b64" d="M 0 0.0390625 L 129.5 0.0390625 L 129.5 38.960938 L 0 38.960938 Z M 0 0.0390625 " fill-opacity="1" fill-rule="nonzero"/></g><g clip-path="url(#52ea76448d)"><path fill="#ffffff" d="M 27.507812 23.058594 C 26.058594 26.984375 22.28125 29.792969 17.855469 29.792969 C 17.738281 29.792969 17.621094 29.785156 17.503906 29.78125 C 17.558594 29.644531 17.636719 29.515625 17.808594 29.363281 C 18.230469 28.996094 18.570312 29.074219 18.730469 28.757812 C 18.886719 28.445312 18.835938 28.234375 19.019531 27.839844 C 19.054688 27.761719 19.109375 27.679688 19.171875 27.589844 C 17.617188 28.265625 16.054688 28.789062 14.570312 29.132812 C 14.566406 29.171875 14.5625 29.207031 14.5625 29.246094 C 14.496094 29.226562 14.433594 29.203125 14.371094 29.179688 C 13.839844 29.296875 13.316406 29.394531 12.808594 29.464844 C 14.324219 30.238281 16.039062 30.675781 17.855469 30.675781 C 22.363281 30.675781 26.253906 27.996094 28.019531 24.144531 Z M 13.472656 22.917969 C 13.265625 22.78125 13.269531 22.894531 13.269531 22.894531 C 13.1875 22.929688 13.34375 23.023438 13.558594 23.128906 C 13.777344 23.230469 13.671875 23.300781 13.796875 23.382812 C 13.921875 23.464844 14.125 23.328125 14.152344 23.1875 C 14.179688 23.050781 13.683594 23.058594 13.472656 22.917969 Z M 21.972656 24.4375 C 21.785156 24.226562 21.730469 24 21.746094 23.785156 C 13.367188 29.324219 3.890625 28.878906 6.257812 22.601562 C 6.269531 22.570312 6.277344 22.441406 6.265625 22.410156 C 6.199219 22.132812 6.144531 21.859375 6.097656 21.597656 C 6.089844 21.550781 6.019531 21.5625 5.992188 21.613281 C 5.265625 23.074219 4.882812 24.714844 5.535156 26.113281 C 7.449219 30.328125 15.832031 28.851562 22.523438 24.734375 C 22.308594 24.699219 22.113281 24.597656 21.972656 24.4375 Z M 14.152344 23.550781 C 14.335938 23.65625 14.320312 23.519531 14.582031 23.550781 C 14.84375 23.582031 14.902344 23.589844 14.902344 23.589844 C 14.902344 23.589844 15.128906 23.527344 15.058594 23.464844 C 14.941406 23.351562 14.941406 23.351562 14.941406 23.351562 C 14.941406 23.351562 14.710938 23.269531 14.527344 23.308594 C 14.34375 23.347656 13.96875 23.445312 14.152344 23.550781 Z M 19.511719 16.152344 C 19.867188 15.992188 19.90625 15.597656 20.558594 15.480469 C 21.207031 15.363281 21.523438 15.324219 21.664062 14.710938 C 21.800781 14.101562 22.097656 14.039062 22.097656 13.527344 C 22.097656 13.015625 22.175781 12.167969 22.453125 11.871094 C 22.726562 11.574219 23.300781 11.257812 22.707031 11.296875 C 22.117188 11.335938 22.433594 11.296875 21.742188 11.238281 C 21.050781 11.179688 20.992188 11.082031 21.308594 11.003906 C 21.625 10.921875 22.078125 10.960938 21.957031 10.726562 C 21.839844 10.488281 21.761719 10.132812 21.167969 10.273438 C 20.578125 10.410156 20.210938 10.804688 19.644531 10.882812 C 19.078125 10.960938 18.839844 11.023438 18.664062 11.355469 C 18.484375 11.691406 17.914062 11.671875 17.65625 11.988281 C 17.402344 12.304688 17.382812 12.757812 17.796875 12.738281 C 18.210938 12.71875 18.445312 12.996094 18.445312 13.429688 C 18.445312 13.863281 18.78125 14.554688 18.503906 14.890625 C 18.230469 15.222656 18.070312 15.597656 18.328125 16.152344 C 18.585938 16.703125 18.78125 17.414062 19.019531 17.136719 C 19.253906 16.863281 19.253906 16.863281 19.253906 16.863281 C 19.253906 16.863281 19.15625 16.308594 19.511719 16.152344 Z M 10.492188 26.679688 C 8.683594 24.824219 7.5625 22.289062 7.5625 19.5 C 7.5625 18.5 7.710938 17.535156 7.976562 16.621094 C 7.992188 16.746094 8.054688 16.878906 8.234375 17.078125 C 8.628906 17.527344 8.785156 18.15625 8.546875 18.710938 C 8.3125 19.261719 8.046875 19.710938 8.234375 20.128906 C 8.417969 20.550781 8.21875 20.789062 8.660156 21.023438 C 9.101562 21.261719 9.179688 21.550781 9.390625 21.917969 C 9.601562 22.289062 9.601562 22.289062 9.601562 22.289062 C 9.601562 22.289062 10.125 22.628906 10.125 23.078125 C 10.125 23.523438 10.441406 23.707031 10.914062 23.761719 C 11.390625 23.8125 11.414062 23.707031 11.785156 23.917969 C 12.152344 24.128906 12.496094 23.867188 12.496094 24.339844 C 12.496094 24.8125 12.625 25.3125 13.046875 25.101562 C 13.46875 24.890625 13.679688 24.914062 13.703125 25.152344 C 13.730469 25.390625 13.914062 25.417969 13.46875 25.679688 C 13.019531 25.945312 13.257812 25.8125 13.125 26.285156 C 13.113281 26.339844 13.097656 26.378906 13.082031 26.417969 C 14.296875 26.179688 15.625 25.78125 17 25.207031 C 16.613281 25.074219 16.734375 25.246094 16.363281 24.996094 C 15.96875 24.734375 16.097656 24.339844 15.546875 24.289062 C 14.992188 24.234375 14.992188 24.234375 14.992188 24.234375 C 14.992188 24.234375 15.046875 24.101562 14.492188 24.261719 C 13.941406 24.417969 13.914062 24.367188 13.546875 24.496094 C 13.179688 24.628906 12.730469 24.445312 12.96875 24.207031 C 13.203125 23.972656 13.203125 23.972656 13.203125 23.972656 C 13.203125 23.972656 13.363281 23.683594 12.96875 23.578125 C 12.574219 23.472656 12.230469 23.714844 12.496094 23.382812 C 12.757812 23.050781 12.890625 22.605469 12.496094 22.761719 C 12.101562 22.917969 12.203125 23.207031 11.863281 23.261719 C 11.519531 23.3125 11.207031 23.207031 11.207031 22.972656 C 11.207031 22.734375 10.941406 22.628906 11.335938 22.289062 C 11.730469 21.945312 11.230469 21.789062 11.96875 21.894531 C 12.703125 22 12.863281 21.65625 13.152344 22.078125 C 13.441406 22.5 13.574219 22.8125 13.597656 22.683594 C 13.625 22.550781 13.546875 22.105469 13.625 21.839844 C 13.703125 21.578125 13.808594 21.710938 14.203125 21.367188 C 14.597656 21.023438 14.304688 20.976562 14.410156 20.808594 C 14.519531 20.640625 14.460938 20.382812 14.738281 20.324219 C 15.011719 20.265625 15.230469 20.136719 15.359375 19.96875 C 15.488281 19.800781 15.476562 19.695312 15.78125 19.695312 C 16.089844 19.695312 16.089844 19.695312 16.089844 19.695312 C 16.089844 19.695312 16.699219 19.632812 16.601562 19.457031 C 16.503906 19.277344 16.453125 19.320312 16.296875 19.367188 C 16.136719 19.417969 15.929688 19.339844 16.03125 19.210938 C 16.128906 19.082031 16.195312 18.984375 16.03125 18.875 C 15.863281 18.765625 15.929688 18.738281 16.324219 18.726562 C 16.71875 18.714844 16.988281 18.390625 16.964844 18.617188 C 16.945312 18.84375 16.671875 19.101562 16.867188 19.140625 C 17.066406 19.179688 17.46875 19.296875 17.570312 19.238281 C 17.667969 19.179688 17.707031 19.0625 17.519531 19.042969 C 17.332031 19.023438 17.242188 18.992188 17.203125 18.84375 C 17.164062 18.695312 17.449219 18.292969 17.222656 18.046875 C 16.996094 17.800781 16.738281 18.007812 16.710938 17.660156 C 16.679688 17.316406 16.730469 16.585938 16.582031 16.753906 C 16.433594 16.921875 16.136719 17.394531 16.039062 17.175781 C 15.941406 16.960938 16.246094 16.761719 16.039062 16.625 C 15.832031 16.488281 15.613281 16.121094 15.40625 16.171875 C 15.199219 16.21875 15.121094 16.152344 15.113281 16.386719 C 15.101562 16.625 14.925781 16.714844 14.933594 17.039062 C 14.945312 17.363281 15.074219 17.394531 14.84375 17.738281 C 14.617188 18.085938 14.597656 18.152344 14.597656 18.152344 C 14.597656 18.152344 14.550781 18.570312 14.332031 18.402344 C 14.117188 18.234375 14.117188 18.234375 14.117188 18.234375 C 14.117188 18.234375 14.460938 17.757812 14.222656 17.652344 C 13.988281 17.542969 13.820312 17.492188 13.640625 17.277344 C 13.464844 17.058594 12.972656 16.636719 13.347656 16.308594 C 13.722656 15.984375 13.859375 15.925781 14.046875 15.746094 C 14.234375 15.570312 14.285156 15.617188 14.351562 15.726562 C 14.421875 15.835938 14.519531 15.796875 14.824219 15.867188 C 15.132812 15.933594 15.171875 15.804688 15.003906 15.558594 C 14.835938 15.3125 14.765625 15.371094 14.992188 15.195312 C 15.21875 15.015625 15.566406 14.660156 15.554688 14.472656 C 15.546875 14.289062 15.761719 14.140625 15.871094 14.425781 C 15.980469 14.710938 16.285156 14.710938 16.175781 14.988281 C 16.070312 15.265625 16.109375 15.410156 15.832031 15.472656 C 15.554688 15.53125 15.308594 15.679688 15.585938 15.777344 C 15.863281 15.875 15.921875 15.867188 16 16.054688 C 16.078125 16.242188 16.355469 16.515625 16.472656 16.417969 C 16.589844 16.320312 16.738281 16.359375 16.671875 16.0625 C 16.601562 15.765625 16.492188 15.285156 16.679688 15.492188 C 16.867188 15.699219 17.015625 15.816406 17.132812 15.648438 C 17.253906 15.480469 17.382812 15.511719 17.164062 15.222656 C 16.945312 14.9375 16.542969 14.949219 16.730469 14.789062 C 16.917969 14.632812 17.3125 14.652344 16.828125 14.277344 C 16.34375 13.902344 16.621094 13.65625 16.316406 13.457031 C 16.007812 13.261719 15.753906 13.132812 15.554688 13.320312 C 15.359375 13.507812 15.417969 13.035156 15.535156 12.75 C 15.65625 12.460938 15.890625 12.511719 16.207031 12.394531 C 16.523438 12.273438 17.273438 11.96875 17.46875 11.613281 C 17.667969 11.257812 18.089844 11.082031 18.289062 10.941406 C 18.484375 10.804688 19.019531 10.648438 18.878906 10.371094 C 18.742188 10.09375 18.753906 9.917969 18.277344 10.015625 C 17.804688 10.113281 17.390625 10.234375 16.820312 10.300781 C 16.246094 10.371094 16.128906 10.441406 15.683594 10.617188 C 15.238281 10.792969 14.460938 10.773438 13.898438 10.941406 C 13.335938 11.109375 12.941406 11.082031 12.792969 11.40625 C 12.644531 11.730469 12.597656 11.820312 12.101562 12.125 C 11.609375 12.433594 11.332031 12.519531 11.480469 12.816406 C 11.628906 13.113281 12.191406 13.664062 11.925781 13.734375 C 11.660156 13.804688 11.234375 13.222656 10.859375 13.171875 C 10.484375 13.121094 10.089844 13.449219 9.855469 13.289062 C 9.816406 13.265625 9.773438 13.234375 9.730469 13.195312 C 11.613281 10.773438 14.554688 9.207031 17.855469 9.207031 C 21.609375 9.207031 24.902344 11.230469 26.699219 14.242188 C 26.355469 14.3125 26.222656 14.394531 26.304688 14.789062 C 26.410156 15.289062 26.675781 15.5 26.886719 15.5 C 27.007812 15.5 26.636719 15.691406 26.394531 15.878906 C 26.417969 15.878906 26.445312 15.875 26.464844 15.875 C 26.699219 15.875 26.910156 15.929688 27.089844 16.019531 C 27.117188 15.996094 27.144531 15.972656 27.175781 15.949219 C 27.371094 15.789062 27.421875 15.75 27.433594 15.742188 C 27.484375 15.875 27.535156 16.007812 27.582031 16.144531 L 28.398438 15.796875 C 26.867188 11.449219 22.71875 8.324219 17.855469 8.324219 C 11.691406 8.324219 6.679688 13.335938 6.679688 19.5 C 6.679688 22.179688 7.628906 24.636719 9.203125 26.566406 C 9.59375 26.632812 10.023438 26.671875 10.492188 26.679688 Z M 27.457031 20.871094 C 26.398438 21.636719 25.195312 22.445312 24.253906 23.03125 L 24.359375 24.984375 L 23.867188 25.417969 L 23.148438 23.675781 C 22.859375 23.828125 22.671875 23.898438 22.636719 23.855469 C 22.597656 23.8125 22.691406 23.636719 22.878906 23.371094 L 21.246094 22.433594 L 21.738281 22 L 23.664062 22.355469 C 24.367188 21.5 25.328125 20.414062 26.222656 19.460938 L 22.0625 16.804688 L 22.554688 16.375 L 25.667969 17.242188 C 25.894531 17.003906 25.960938 16.953125 26.007812 16.90625 C 26.226562 16.714844 26.652344 16.734375 26.746094 16.835938 C 26.828125 16.929688 26.785156 17.3125 26.621094 17.507812 L 27.851562 17.855469 C 28.226562 17.507812 28.5 17.273438 28.582031 17.199219 C 29.199219 16.660156 30.980469 16.070312 31.207031 16.328125 C 31.433594 16.585938 30.566406 18.324219 30.003906 18.820312 C 29.90625 18.90625 29.640625 19.144531 29.261719 19.460938 L 29.441406 20.726562 C 29.65625 20.585938 30.042969 20.59375 30.125 20.6875 C 30.21875 20.792969 30.179688 21.21875 29.960938 21.40625 C 29.910156 21.453125 29.851562 21.511719 29.582031 21.703125 L 30.042969 24.90625 L 29.554688 25.335938 L 27.457031 20.871094 " fill-opacity="1" fill-rule="nonzero"/></g><g fill="#ffffff" fill-opacity="1"><g transform="translate(36.424348, 25.647617)"><g><path d="M 9.171875 -14.09375 L 9.171875 -11.265625 L 4.234375 -11.265625 L 4.234375 -8.46875 L 8.796875 -8.46875 L 8.796875 -5.65625 L 4.234375 -5.65625 L 4.234375 0 L 1.03125 0 L 1.03125 -14.09375 Z M 9.171875 -14.09375 "/></g></g></g><g fill="#ffffff" fill-opacity="1"><g transform="translate(46.106757, 25.647617)"><g><path d="M 1.03125 0 L 1.03125 -14.6875 L 4.046875 -14.6875 L 4.046875 0 Z M 1.03125 0 "/></g></g></g><g fill="#ffffff" fill-opacity="1"><g transform="translate(51.178493, 25.647617)"><g><path d="M 1.3125 -13.640625 C 1.664062 -13.992188 2.085938 -14.171875 2.578125 -14.171875 C 3.066406 -14.171875 3.488281 -13.992188 3.84375 -13.640625 C 4.195312 -13.285156 4.375 -12.863281 4.375 -12.375 C 4.375 -11.882812 4.195312 -11.460938 3.84375 -11.109375 C 3.488281 -10.765625 3.066406 -10.59375 2.578125 -10.59375 C 2.085938 -10.59375 1.664062 -10.765625 1.3125 -11.109375 C 0.957031 -11.460938 0.78125 -11.882812 0.78125 -12.375 C 0.78125 -12.863281 0.957031 -13.285156 1.3125 -13.640625 Z M 1.03125 -8.765625 L 1.03125 0 L 4.046875 0 L 4.046875 -8.765625 Z M 1.03125 -8.765625 "/></g></g></g><g fill="#ffffff" fill-opacity="1"><g transform="translate(56.335609, 25.647617)"><g><path d="M 0.625 2.15625 L 3.109375 0.9375 C 3.566406 1.6875 4.359375 2.0625 5.484375 2.0625 C 6.003906 2.0625 6.488281 1.894531 6.9375 1.5625 C 7.382812 1.226562 7.609375 0.710938 7.609375 0.015625 L 7.609375 -0.625 C 7.078125 -0.0390625 6.125 0.25 4.75 0.25 C 3.488281 0.25 2.445312 -0.191406 1.625 -1.078125 C 0.800781 -1.972656 0.390625 -3.066406 0.390625 -4.359375 C 0.390625 -5.660156 0.800781 -6.757812 1.625 -7.65625 C 2.445312 -8.5625 3.488281 -9.015625 4.75 -9.015625 C 5.875 -9.015625 6.8125 -8.664062 7.5625 -7.96875 L 7.609375 -7.96875 L 7.609375 -8.765625 L 10.640625 -8.765625 L 10.640625 0.234375 C 10.640625 1.660156 10.164062 2.757812 9.21875 3.53125 C 8.28125 4.3125 7.035156 4.703125 5.484375 4.703125 C 2.972656 4.703125 1.351562 3.851562 0.625 2.15625 Z M 4.1875 -5.859375 C 3.800781 -5.472656 3.609375 -4.976562 3.609375 -4.375 C 3.609375 -3.769531 3.796875 -3.273438 4.171875 -2.890625 C 4.546875 -2.515625 5.039062 -2.328125 5.65625 -2.328125 C 6.25 -2.328125 6.734375 -2.519531 7.109375 -2.90625 C 7.492188 -3.289062 7.6875 -3.78125 7.6875 -4.375 C 7.6875 -4.976562 7.488281 -5.472656 7.09375 -5.859375 C 6.695312 -6.242188 6.21875 -6.4375 5.65625 -6.4375 C 5.070312 -6.4375 4.582031 -6.242188 4.1875 -5.859375 Z M 4.1875 -5.859375 "/></g></g></g><g fill="#ffffff" fill-opacity="1"><g transform="translate(67.998893, 25.647617)"><g><path d="M 1.03125 0 L 1.03125 -14.6875 L 4.046875 -14.6875 L 4.046875 -7.84375 L 4.078125 -7.84375 C 4.867188 -8.625 5.707031 -9.015625 6.59375 -9.015625 C 7.019531 -9.015625 7.445312 -8.957031 7.875 -8.84375 C 8.300781 -8.726562 8.710938 -8.550781 9.109375 -8.3125 C 9.503906 -8.070312 9.820312 -7.734375 10.0625 -7.296875 C 10.3125 -6.859375 10.4375 -6.347656 10.4375 -5.765625 L 10.4375 0 L 7.40625 0 L 7.40625 -4.953125 C 7.40625 -5.410156 7.257812 -5.804688 6.96875 -6.140625 C 6.6875 -6.484375 6.3125 -6.65625 5.84375 -6.65625 C 5.382812 -6.65625 4.96875 -6.476562 4.59375 -6.125 C 4.226562 -5.78125 4.046875 -5.390625 4.046875 -4.953125 L 4.046875 0 Z M 1.03125 0 "/></g></g></g><g fill="#ffffff" fill-opacity="1"><g transform="translate(79.286493, 25.647617)"><g><path d="M 1.53125 -8.765625 L 1.53125 -12.015625 L 4.5625 -12.015625 L 4.5625 -8.765625 L 6.40625 -8.765625 L 6.40625 -6.453125 L 4.5625 -6.453125 L 4.5625 -3.671875 C 4.5625 -2.859375 4.789062 -2.453125 5.25 -2.453125 C 5.351562 -2.453125 5.46875 -2.472656 5.59375 -2.515625 C 5.726562 -2.566406 5.828125 -2.617188 5.890625 -2.671875 L 6 -2.734375 L 6.75 -0.296875 C 6.09375 0.0664062 5.351562 0.25 4.53125 0.25 C 3.957031 0.25 3.460938 0.148438 3.046875 -0.046875 C 2.640625 -0.242188 2.332031 -0.507812 2.125 -0.84375 C 1.914062 -1.175781 1.765625 -1.523438 1.671875 -1.890625 C 1.578125 -2.265625 1.53125 -2.664062 1.53125 -3.09375 L 1.53125 -6.453125 L 0.265625 -6.453125 L 0.265625 -8.765625 Z M 1.53125 -8.765625 "/></g></g></g><g fill="#ffffff" fill-opacity="1"><g transform="translate(86.031736, 25.647617)"><g><path d="M 4.234375 -8.75 L 4.234375 0 L 1.03125 0 L 1.03125 -14.09375 L 4.234375 -14.09375 L 9.84375 -5.34375 L 9.875 -5.34375 L 9.875 -14.09375 L 13.078125 -14.09375 L 13.078125 0 L 9.875 0 L 4.265625 -8.75 Z M 4.234375 -8.75 "/></g></g></g><g fill="#ffffff" fill-opacity="1"><g transform="translate(100.136969, 25.647617)"><g><path d="M 9.890625 -3.96875 L 3.53125 -3.96875 C 3.53125 -3.351562 3.726562 -2.894531 4.125 -2.59375 C 4.53125 -2.300781 4.96875 -2.15625 5.4375 -2.15625 C 5.925781 -2.15625 6.3125 -2.21875 6.59375 -2.34375 C 6.875 -2.476562 7.195312 -2.738281 7.5625 -3.125 L 9.75 -2.03125 C 8.84375 -0.507812 7.328125 0.25 5.203125 0.25 C 3.890625 0.25 2.757812 -0.195312 1.8125 -1.09375 C 0.863281 -2 0.390625 -3.085938 0.390625 -4.359375 C 0.390625 -5.640625 0.863281 -6.734375 1.8125 -7.640625 C 2.757812 -8.554688 3.890625 -9.015625 5.203125 -9.015625 C 6.597656 -9.015625 7.726562 -8.613281 8.59375 -7.8125 C 9.46875 -7.007812 9.90625 -5.863281 9.90625 -4.375 C 9.90625 -4.164062 9.898438 -4.03125 9.890625 -3.96875 Z M 3.625 -5.640625 L 6.953125 -5.640625 C 6.878906 -6.085938 6.695312 -6.429688 6.40625 -6.671875 C 6.125 -6.921875 5.753906 -7.046875 5.296875 -7.046875 C 4.796875 -7.046875 4.394531 -6.914062 4.09375 -6.65625 C 3.800781 -6.394531 3.644531 -6.054688 3.625 -5.640625 Z M 3.625 -5.640625 "/></g></g></g><g fill="#ffffff" fill-opacity="1"><g transform="translate(110.434126, 25.647617)"><g><path d="M 4.828125 -9.015625 C 5.328125 -9.015625 5.820312 -8.957031 6.3125 -8.84375 C 6.800781 -8.726562 7.164062 -8.613281 7.40625 -8.5 L 7.765625 -8.328125 L 6.78125 -6.359375 C 6.09375 -6.722656 5.441406 -6.90625 4.828125 -6.90625 C 4.492188 -6.90625 4.253906 -6.863281 4.109375 -6.78125 C 3.960938 -6.707031 3.890625 -6.570312 3.890625 -6.375 C 3.890625 -6.320312 3.894531 -6.273438 3.90625 -6.234375 C 3.914062 -6.191406 3.9375 -6.148438 3.96875 -6.109375 C 4.007812 -6.066406 4.039062 -6.03125 4.0625 -6 C 4.09375 -5.96875 4.144531 -5.9375 4.21875 -5.90625 C 4.289062 -5.875 4.34375 -5.847656 4.375 -5.828125 C 4.414062 -5.816406 4.484375 -5.789062 4.578125 -5.75 C 4.671875 -5.71875 4.738281 -5.691406 4.78125 -5.671875 C 4.820312 -5.660156 4.894531 -5.632812 5 -5.59375 C 5.113281 -5.5625 5.203125 -5.539062 5.265625 -5.53125 C 5.617188 -5.425781 5.925781 -5.3125 6.1875 -5.1875 C 6.445312 -5.0625 6.722656 -4.890625 7.015625 -4.671875 C 7.304688 -4.460938 7.53125 -4.191406 7.6875 -3.859375 C 7.84375 -3.523438 7.921875 -3.148438 7.921875 -2.734375 C 7.921875 -0.742188 6.539062 0.25 3.78125 0.25 C 3.144531 0.25 2.546875 0.15625 1.984375 -0.03125 C 1.421875 -0.226562 1.015625 -0.421875 0.765625 -0.609375 L 0.390625 -0.921875 L 1.625 -2.984375 C 1.71875 -2.910156 1.835938 -2.816406 1.984375 -2.703125 C 2.128906 -2.597656 2.394531 -2.453125 2.78125 -2.265625 C 3.164062 -2.078125 3.503906 -1.984375 3.796875 -1.984375 C 4.421875 -1.984375 4.734375 -2.191406 4.734375 -2.609375 C 4.734375 -2.804688 4.648438 -2.957031 4.484375 -3.0625 C 4.328125 -3.175781 4.054688 -3.300781 3.671875 -3.4375 C 3.296875 -3.570312 3 -3.695312 2.78125 -3.8125 C 2.238281 -4.09375 1.804688 -4.410156 1.484375 -4.765625 C 1.160156 -5.128906 1 -5.609375 1 -6.203125 C 1 -7.085938 1.34375 -7.773438 2.03125 -8.265625 C 2.726562 -8.765625 3.660156 -9.015625 4.828125 -9.015625 Z M 4.828125 -9.015625 "/></g></g></g><g fill="#ffffff" fill-opacity="1"><g transform="translate(118.835788, 25.647617)"><g><path d="M 1.53125 -8.765625 L 1.53125 -12.015625 L 4.5625 -12.015625 L 4.5625 -8.765625 L 6.40625 -8.765625 L 6.40625 -6.453125 L 4.5625 -6.453125 L 4.5625 -3.671875 C 4.5625 -2.859375 4.789062 -2.453125 5.25 -2.453125 C 5.351562 -2.453125 5.46875 -2.472656 5.59375 -2.515625 C 5.726562 -2.566406 5.828125 -2.617188 5.890625 -2.671875 L 6 -2.734375 L 6.75 -0.296875 C 6.09375 0.0664062 5.351562 0.25 4.53125 0.25 C 3.957031 0.25 3.460938 0.148438 3.046875 -0.046875 C 2.640625 -0.242188 2.332031 -0.507812 2.125 -0.84375 C 1.914062 -1.175781 1.765625 -1.523438 1.671875 -1.890625 C 1.578125 -2.265625 1.53125 -2.664062 1.53125 -3.09375 L 1.53125 -6.453125 L 0.265625 -6.453125 L 0.265625 -8.765625 Z M 1.53125 -8.765625 "/></g></g></g></svg>